<?xml version="1.0" encoding="UTF-8" standalone="no"?>
<!-- Created with Inkscape (http://www.inkscape.org/) -->

<svg
   width="67.343933mm"
   height="10.528888mm"
   viewBox="0 0 67.343934 10.528888"
   version="1.1"
   id="svg4802"
   inkscape:version="1.1.2 (b8e25be8, 2022-02-05)"
   sodipodi:docname="Premium-button.svg"
   xmlns:inkscape="http://www.inkscape.org/namespaces/inkscape"
   xmlns:sodipodi="http://sodipodi.sourceforge.net/DTD/sodipodi-0.dtd"
   xmlns="http://www.w3.org/2000/svg"
   xmlns:svg="http://www.w3.org/2000/svg">
  <sodipodi:namedview
     id="namedview4804"
     pagecolor="#ffffff"
     bordercolor="#666666"
     borderopacity="1.0"
     inkscape:pageshadow="2"
     inkscape:pageopacity="0.0"
     inkscape:pagecheckerboard="0"
     inkscape:document-units="mm"
     showgrid="false"
     fit-margin-top="0"
     fit-margin-left="0"
     fit-margin-right="0"
     fit-margin-bottom="0"
     inkscape:zoom="1.877186"
     inkscape:cx="135.57527"
     inkscape:cy="40.752489"
     inkscape:window-width="1312"
     inkscape:window-height="959"
     inkscape:window-x="0"
     inkscape:window-y="25"
     inkscape:window-maximized="0"
     inkscape:current-layer="layer1" />
  <defs
     id="defs4799" />
  <g
     inkscape:label="Layer 1"
     inkscape:groupmode="layer"
     id="layer1"
     transform="translate(53.026578,27.62975)">
    <path
       id="rect6702-3-9"
       style="fill:#172ce1;stroke:#182fea;stroke-width:0.4657;stroke-linejoin:round"
       d="M -47.762134,-27.3969 H 9.0529132 c 2.7875028,0 5.0315938,2.244091 5.0315938,5.031594 0,2.787503 -2.244091,5.031593 -5.0315938,5.031593 H -47.762134 c -2.787503,0 -5.031594,-2.24409 -5.031594,-5.031593 0,-2.787503 2.244091,-5.031594 5.031594,-5.031594 z" />
    <g
       aria-label="Go Premium"
       id="text11937-5-7"
       style="font-weight:500;font-size:5.96692px;line-height:1.25;font-family:Roboto;-inkscape-font-specification:'Roboto Medium';fill:#ffffff;stroke-width:0.149173">
      <path
         d="m -32.488832,-20.979264 q -0.06118,0.08741 -0.168985,0.195207 -0.107801,0.104887 -0.285527,0.19812 -0.174812,0.09323 -0.431203,0.157331 -0.256391,0.0641 -0.614756,0.0641 -0.3875,0 -0.713816,-0.136937 -0.323402,-0.136936 -0.559399,-0.393327 -0.233082,-0.259304 -0.364191,-0.632237 -0.13111,-0.375846 -0.13111,-0.850752 v -0.332143 q 0,-0.474906 0.110715,-0.847839 0.113628,-0.372932 0.329229,-0.632237 0.218515,-0.259305 0.536091,-0.396241 0.317575,-0.136936 0.728384,-0.136936 0.364191,0 0.638064,0.09906 0.273872,0.09615 0.466165,0.270959 0.192294,0.171899 0.305922,0.410809 0.113627,0.238909 0.154417,0.521522 h -0.559399 q -0.03205,-0.171898 -0.101974,-0.323402 -0.06701,-0.154417 -0.186466,-0.268045 -0.119455,-0.116542 -0.294267,-0.183553 -0.174812,-0.06701 -0.419549,-0.06701 -0.297181,0 -0.512782,0.1078 -0.215602,0.107801 -0.355451,0.308835 -0.13985,0.201034 -0.209775,0.486561 -0.06701,0.285526 -0.06701,0.643891 v 0.33797 q 0,0.367105 0.08741,0.655545 0.08741,0.28844 0.244737,0.489474 0.160244,0.201034 0.381673,0.305921 0.224342,0.104888 0.495301,0.104888 0.227256,0 0.384586,-0.02914 0.160245,-0.03205 0.268046,-0.07575 0.110714,-0.04662 0.177725,-0.09906 0.06701,-0.05536 0.110715,-0.101974 v -0.952726 h -0.981862 v -0.454511 h 1.538347 z"
         style="font-weight:normal;-inkscape-font-specification:Roboto"
         id="path29643" />
      <path
         d="m -31.780843,-22.028137 q 0,-0.343797 0.09906,-0.635151 0.101974,-0.294267 0.285527,-0.509868 0.186466,-0.215602 0.451598,-0.33797 0.265131,-0.122369 0.594361,-0.122369 0.335056,0 0.600188,0.122369 0.268045,0.122368 0.454511,0.33797 0.186467,0.215601 0.285527,0.509868 0.09906,0.291354 0.09906,0.635151 v 0.0641 q 0,0.343797 -0.09906,0.638064 -0.09906,0.291354 -0.285527,0.506955 -0.186466,0.212688 -0.451598,0.335057 -0.265131,0.119455 -0.597274,0.119455 -0.332143,0 -0.597275,-0.119455 -0.265132,-0.122369 -0.451598,-0.335057 -0.186466,-0.215601 -0.28844,-0.506955 -0.09906,-0.294267 -0.09906,-0.638064 z m 0.541917,0.0641 q 0,0.235996 0.05536,0.445771 0.05536,0.209774 0.166071,0.370019 0.113628,0.157331 0.2797,0.250564 0.168985,0.09323 0.393327,0.09323 0.221428,0 0.390413,-0.09323 0.168986,-0.09323 0.2797,-0.250564 0.110714,-0.160245 0.166071,-0.370019 0.05827,-0.209775 0.05827,-0.445771 v -0.0641 q 0,-0.233083 -0.05827,-0.442857 -0.05536,-0.212688 -0.168985,-0.370019 -0.110714,-0.160245 -0.279699,-0.253478 -0.168985,-0.09615 -0.393327,-0.09615 -0.221429,0 -0.3875,0.09615 -0.166072,0.09323 -0.2797,0.253478 -0.110714,0.157331 -0.166071,0.370019 -0.05536,0.209774 -0.05536,0.442857 z"
         style="font-weight:normal;-inkscape-font-specification:Roboto"
         id="path29645" />
      <path
         d="m -26.111103,-22.083494 v 1.660715 h -0.559399 v -4.242107 h 1.564568 q 0.361279,0 0.638064,0.09615 0.276786,0.09615 0.463253,0.270959 0.189379,0.171899 0.285526,0.410809 0.09906,0.235996 0.09906,0.518609 0,0.305921 -0.09906,0.547745 -0.09615,0.238909 -0.285526,0.402067 -0.186467,0.163158 -0.463253,0.250564 -0.276785,0.08449 -0.638064,0.08449 z m 0,-0.457425 h 1.005169 q 0.244737,0 0.419549,-0.06118 0.177726,-0.06119 0.28844,-0.168985 0.113628,-0.110715 0.166072,-0.259305 0.05244,-0.151504 0.05244,-0.332143 0,-0.163158 -0.05244,-0.314662 -0.05244,-0.154417 -0.166072,-0.270959 -0.110714,-0.116541 -0.28844,-0.186466 -0.174812,-0.06992 -0.419549,-0.06992 h -1.005169 z"
         style="font-weight:normal;-inkscape-font-specification:Roboto"
         id="path29647" />
      <path
         d="m -21.466929,-23.091577 q -0.06993,-0.01165 -0.131109,-0.01457 -0.05827,-0.0058 -0.134022,-0.0058 -0.2797,0 -0.457425,0.122368 -0.174813,0.122369 -0.262219,0.32923 v 2.237595 h -0.539004 v -3.152445 h 0.524437 l 0.0087,0.364192 q 0.122369,-0.195207 0.305922,-0.308835 0.183552,-0.113628 0.44577,-0.113628 0.05827,0 0.134023,0.01457 0.07575,0.01165 0.104887,0.02622 z"
         style="font-weight:normal;-inkscape-font-specification:Roboto"
         id="path29649" />
      <path
         d="m -19.724635,-20.364508 q -0.329229,0 -0.597275,-0.113628 -0.265131,-0.113628 -0.454511,-0.314662 -0.18938,-0.203947 -0.291354,-0.483647 -0.101973,-0.279699 -0.101973,-0.611842 v -0.122369 q 0,-0.384586 0.113627,-0.687594 0.116542,-0.303008 0.308835,-0.509869 0.192293,-0.206861 0.439944,-0.314661 0.24765,-0.110715 0.515696,-0.110715 0.33797,0 0.582707,0.119455 0.244737,0.116542 0.402068,0.323403 0.160244,0.206861 0.235996,0.489473 0.07575,0.282613 0.07575,0.614756 v 0.241824 h -2.135621 q 0.0058,0.218515 0.06992,0.407895 0.06701,0.189379 0.186467,0.329229 0.122368,0.13985 0.291353,0.221429 0.171899,0.08158 0.3875,0.08158 0.285527,0 0.483647,-0.116542 0.198121,-0.116541 0.346711,-0.308834 l 0.329229,0.256391 q -0.07575,0.116541 -0.183552,0.227256 -0.107801,0.1078 -0.253478,0.195206 -0.142763,0.08449 -0.329229,0.134023 -0.186467,0.05244 -0.422463,0.05244 z m -0.06701,-2.826129 q -0.163158,0 -0.300094,0.06118 -0.136937,0.05827 -0.244737,0.171898 -0.107801,0.113628 -0.18064,0.282613 -0.06992,0.168985 -0.09615,0.3875 h 1.579136 v -0.04079 q -0.0087,-0.157331 -0.05244,-0.311748 -0.04079,-0.154418 -0.131109,-0.276786 -0.08741,-0.122369 -0.227256,-0.198121 -0.139849,-0.07575 -0.34671,-0.07575 z"
         style="font-weight:normal;-inkscape-font-specification:Roboto"
         id="path29651" />
      <path
         d="m -17.367584,-23.575224 0.01457,0.349624 q 0.163158,-0.192293 0.393327,-0.300094 0.233083,-0.107801 0.541918,-0.107801 0.305921,0 0.539004,0.122369 0.235996,0.119455 0.361278,0.384586 0.157331,-0.227255 0.407895,-0.367105 0.253478,-0.13985 0.597275,-0.13985 0.253478,0 0.448684,0.06701 0.195207,0.0641 0.32923,0.203947 0.136936,0.13985 0.206861,0.355451 0.06992,0.215602 0.06992,0.512782 v 2.071524 h -0.539004 v -2.074437 q 0,-0.19812 -0.04953,-0.32923 -0.04662,-0.131109 -0.134023,-0.209774 -0.08741,-0.07867 -0.212688,-0.107801 -0.125282,-0.03205 -0.276786,-0.03205 -0.166071,0 -0.294267,0.05244 -0.128196,0.05244 -0.221429,0.142763 -0.09032,0.08741 -0.145676,0.209775 -0.05244,0.119455 -0.06701,0.256391 v 2.091918 h -0.541917 v -2.071524 q 0,-0.183552 -0.04953,-0.311748 -0.04662,-0.131109 -0.134023,-0.212688 -0.08741,-0.08158 -0.212688,-0.119455 -0.122368,-0.03788 -0.276786,-0.03788 -0.28844,0 -0.463252,0.125282 -0.174812,0.125282 -0.262218,0.326316 v 2.301693 h -0.539004 v -3.152445 z"
         style="font-weight:normal;-inkscape-font-specification:Roboto"
         id="path29653" />
      <path
         d="m -12.056211,-20.422779 h -0.539004 v -3.152445 h 0.539004 z m -0.582707,-3.98863 q 0,-0.131109 0.07867,-0.221428 0.08158,-0.09032 0.23891,-0.09032 0.157331,0 0.23891,0.09032 0.08158,0.09032 0.08158,0.221428 0,0.131109 -0.08158,0.218515 -0.08158,0.08741 -0.23891,0.08741 -0.157331,0 -0.23891,-0.08741 -0.07867,-0.08741 -0.07867,-0.218515 z"
         style="font-weight:normal;-inkscape-font-specification:Roboto"
         id="path29655" />
      <path
         d="m -9.250476,-20.734527 q -0.1485903,0.174812 -0.375846,0.273872 -0.2272558,0.09615 -0.547745,0.09615 -0.233082,0 -0.422462,-0.0641 -0.18938,-0.06701 -0.326316,-0.206861 -0.136936,-0.142763 -0.212688,-0.364192 -0.07284,-0.224342 -0.07284,-0.539004 v -2.036561 h 0.539004 v 2.042388 q 0,0.212688 0.04953,0.352538 0.04953,0.136936 0.131109,0.218515 0.08158,0.07867 0.186466,0.110714 0.104887,0.02914 0.215601,0.02914 0.3292299,0 0.5273503,-0.125282 0.2010339,-0.125282 0.294267,-0.335057 v -2.292952 h 0.539004 v 3.152445 h -0.5127821 z"
         style="font-weight:normal;-inkscape-font-specification:Roboto"
         id="path29657" />
      <path
         d="m -7.4032957,-23.575224 0.014568,0.349624 q 0.163158,-0.192293 0.3933273,-0.300094 0.2330828,-0.107801 0.5419175,-0.107801 0.3059212,0 0.539004,0.122369 0.2359964,0.119455 0.3612784,0.384586 0.1573309,-0.227255 0.4078949,-0.367105 0.2534775,-0.13985 0.5972747,-0.13985 0.2534775,0 0.4486844,0.06701 0.1952068,0.0641 0.3292294,0.203947 0.1369362,0.13985 0.206861,0.355451 0.069925,0.215602 0.069925,0.512782 v 2.071524 h -0.539004 v -2.074437 q 0,-0.19812 -0.04953,-0.32923 -0.046617,-0.131109 -0.1340226,-0.209774 -0.087406,-0.07867 -0.2126881,-0.107801 -0.125282,-0.03205 -0.2767858,-0.03205 -0.1660715,0 -0.2942671,0.05244 -0.1281955,0.05244 -0.2214286,0.142763 -0.09032,0.08741 -0.1456768,0.209775 -0.052444,0.119455 -0.067011,0.256391 v 2.091918 h -0.5419175 v -2.071524 q 0,-0.183552 -0.04953,-0.311748 -0.046617,-0.131109 -0.1340226,-0.212688 -0.087406,-0.08158 -0.2126881,-0.119455 -0.1223685,-0.03788 -0.2767858,-0.03788 -0.28844,0 -0.4632521,0.125282 -0.1748121,0.125282 -0.2622182,0.326316 v 2.301693 h -0.539004 v -3.152445 z"
         style="font-weight:normal;-inkscape-font-specification:Roboto"
         id="path29659" />
    </g>
    <path
       id="path463622-0-7"
       style="fill:#ffffff;stroke-width:0.0468082;stroke-linejoin:round"
       d="m -44.88509,-22.328541 a 3.1403728,3.1403728 0 0 1 -3.140373,3.140373 3.1403728,3.1403728 0 0 1 -3.140373,-3.140373 3.1403728,3.1403728 0 0 1 3.140373,-3.140373 3.1403728,3.1403728 0 0 1 3.140373,3.140373 z" />
    <path
       d="m -50.379936,-24.75039 c 0.65698,-0.6569 1.51805,-0.9855 2.37906,-0.9855 0.86102,0 1.72215,0.3286 2.37912,0.9855 0.65692,0.657 0.98538,1.518 0.98538,2.379 0,0.8611 -0.32846,1.7221 -0.98538,2.3791 -0.65697,0.6569 -1.5181,0.9855 -2.37912,0.9855 -0.86101,0 -1.72214,-0.3286 -2.37906,-0.9855 -0.65697,-0.6569 -0.98542,-1.518 -0.98542,-2.3791 0,-0.861 0.32845,-1.722 0.98542,-2.379 z m 2.1719,0.7221 c 0,-0.1008 0.0817,-0.1825 0.18252,-0.1825 0.10082,0 0.18252,0.082 0.18252,0.1825 v 1.4995 h 1.49954 c 0.10076,0 0.18247,0.082 0.18247,0.1825 0,0.1008 -0.0817,0.1825 -0.18247,0.1825 h -1.49959 v 1.4995 c 0,0.1008 -0.0817,0.1825 -0.18252,0.1825 -0.10082,0 -0.18252,-0.082 -0.18252,-0.1825 v -1.4995 h -1.49948 c -0.10076,0 -0.18252,-0.082 -0.18252,-0.1826 0,-0.1007 0.0817,-0.1824 0.18252,-0.1824 h 1.49953 z m 0.20716,-1.3426 c -0.76763,0 -1.53524,0.2929 -2.12097,0.8786 -0.58566,0.5857 -0.87853,1.3533 -0.87853,2.1209 0,0.7677 0.29287,1.5353 0.87853,2.121 0.58573,0.5857 1.35334,0.8786 2.12097,0.8786 0.76765,0 1.53524,-0.2929 2.12097,-0.8786 0.58568,-0.5857 0.8786,-1.3534 0.8786,-2.121 0,-0.7676 -0.29292,-1.5352 -0.8786,-2.1209 -0.58567,-0.5857 -1.35332,-0.8786 -2.12097,-0.8786 z"
       id="path22727-3-5"
       style="fill:#172ce1;fill-opacity:1;stroke-width:0.0547612" />
    <g
       style="clip-rule:evenodd;fill:#ffffff;fill-opacity:1;fill-rule:evenodd;stroke:none;image-rendering:optimizeQuality;shape-rendering:geometricPrecision;text-rendering:geometricPrecision"
       id="g95515-2-8"
       transform="matrix(0.02101704,0,0,0.02101704,0.26503,-24.84689)">
      <path
         fill-rule="nonzero"
         d="M 373.57,0 512,120.75 371.53,243.58 350.61,219.67 445.54,136.67 0,137.09 v -31.75 l 445.55,-0.41 -92.89,-81.02 z"
         id="path95506-3-6"
         style="fill:#ffffff;fill-opacity:1;stroke:none" />
    </g>
  </g>
</svg>
